<svg width="16" height="16" viewBox="0 0 16 16"><path fill-opacity=".9" fill-rule="evenodd" d="M13.354 2.647a2.62 2.62 0 0 1 0 3.707l-1.5 1.5a.5.5 0 1 1-.708-.707l1.5-1.5a1.621 1.621 0 1 0-2.293-2.293l-1.5 1.5a.5.5 0 1 1-.707-.707l1.5-1.5a2.62 2.62 0 0 1 3.707 0M2.646 13.354a2.62 2.62 0 0 1 0-3.707l1.5-1.5a.5.5 0 1 1 .707.707l-1.5 1.5a1.621 1.621 0 0 0 2.293 2.293l1.5-1.5a.5.5 0 1 1 .707.707l-1.5 1.5a2.62 2.62 0 0 1-3.707 0M5.5 2a.5.5 0 0 1 .5.5V4a.5.5 0 1 1-1 0V2.5a.5.5 0 0 1 .5-.5m-3 3a.5.5 0 1 0 0 1H4a.5.5 0 0 0 0-1zm8 9a.5.5 0 0 1-.5-.5V12a.5.5 0 0 1 1 0v1.5a.5.5 0 0 1-.5.5m3-3a.5.5 0 1 0 0-1H12a.5.5 0 1 0 0 1z" clip-rule="evenodd"/></svg>