<svg width="16" height="16" viewBox="0 0 16 16"><path fill-opacity=".9" fill-rule="evenodd" d="M6 2a1 1 0 0 1 1-1h2a1 1 0 0 1 1 1zM5 2a2 2 0 0 1 2-2h2a2 2 0 0 1 2 2h2.5a1.5 1.5 0 0 1 .463 2.927l-.841 9.254A2 2 0 0 1 11.13 16H4.87a2 2 0 0 1-1.992-1.819l-.841-9.254A1.5 1.5 0 0 1 2.5 2zm8.494 2h.01a.5.5 0 0 0-.004-1h-11a.5.5 0 0 0-.004 1zm-.541 1H3.048l.826 9.09a1 1 0 0 0 .996.91h6.26a1 1 0 0 0 .996-.91zM7 7.5a.5.5 0 0 0-1 0v5a.5.5 0 0 0 1 0zm3 0a.5.5 0 0 0-1 0v5a.5.5 0 0 0 1 0z" clip-rule="evenodd"/></svg>